inDegrees=no
num_controls=7
num_derivatives=13
num_iterations=97
num_multipliers=7
num_parameters=0
num_slacks=7
num_states=26
objective=0.330615
objective_accelerations=0.041857
objective_balance=0.001418
objective_effort=0.030916
objective_height=0.254782
objective_ligament=0.001642
solver_duration=1205.675217
status=Solve_Succeeded
success=true
DataType=double
version=3
OpenSimVersion=4.5
endheader
time	/jointset/ground_pelvis/pelvis_tilt/value	/jointset/ground_pelvis/pelvis_tx/value	/jointset/ground_pelvis/pelvis_ty/value	/jointset/hip_r/hip_flexion_r/value	/jointset/hip_r/hip_adduction_r/value	/jointset/hip_r/hip_rotation_r/value	/jointset/back/lumbar_extension/value	/jointset/patellofemoral_r/patellar_flexion_r/value	/jointset/knee_r/knee_flexion_r/value	/jointset/knee_r/knee_adduction_r/value	/jointset/knee_r/knee_rotation_r/value	/jointset/ankle_r/ankle_angle_r/value	/jointset/subtalar_r/subtalar_angle_r/value	/jointset/ground_pelvis/pelvis_tilt/speed	/jointset/ground_pelvis/pelvis_tx/speed	/jointset/ground_pelvis/pelvis_ty/speed	/jointset/hip_r/hip_flexion_r/speed	/jointset/hip_r/hip_adduction_r/speed	/jointset/hip_r/hip_rotation_r/speed	/jointset/back/lumbar_extension/speed	/jointset/patellofemoral_r/patellar_flexion_r/speed	/jointset/knee_r/knee_flexion_r/speed	/jointset/knee_r/knee_adduction_r/speed	/jointset/knee_r/knee_rotation_r/speed	/jointset/ankle_r/ankle_angle_r/speed	/jointset/subtalar_r/subtalar_angle_r/speed	/forceset/tau_hip_flexion_r	/forceset/tau_hip_adduction_r	/forceset/tau_hip_rotation_r	/forceset/tau_knee_flexion_r	/forceset/tau_ankle_angle_r	/forceset/tau_subtalar_angle_r	/forceset/tau_lumbar_extension	lambda_cid13_p0	lambda_cid14_p0	lambda_cid14_p1	lambda_cid14_p2	lambda_cid14_p3	lambda_cid14_p4	lambda_cid14_p5	/jointset/ground_pelvis/pelvis_tilt/accel	/jointset/ground_pelvis/pelvis_tx/accel	/jointset/ground_pelvis/pelvis_ty/accel	/jointset/hip_r/hip_flexion_r/accel	/jointset/hip_r/hip_adduction_r/accel	/jointset/hip_r/hip_rotation_r/accel	/jointset/back/lumbar_extension/accel	/jointset/patellofemoral_r/patellar_flexion_r/accel	/jointset/knee_r/knee_flexion_r/accel	/jointset/knee_r/knee_adduction_r/accel	/jointset/knee_r/knee_rotation_r/accel	/jointset/ankle_r/ankle_angle_r/accel	/jointset/subtalar_r/subtalar_angle_r/accel	gamma_cid13_p0	gamma_cid14_p0	gamma_cid14_p1	gamma_cid14_p2	gamma_cid14_p3	gamma_cid14_p4	gamma_cid14_p5
1.5	-0.144709463128884	0.02477043918581499	0.7918069209117168	0.9365842241676779	-0.2444219182946359	-0.0599271056212959	-0.6372902483347258	1.023149636278802	1.023149636278747	0.02128996129892515	0.174449791703508	0.3144527433751588	0.1115597794232446	0.6048261604680953	0.2437973384865047	0.6078846890058328	-2.358500055011072	0.005139738639525842	-0.3985300563457119	0.7991117772149742	-2.173505549764573	-2.173505549764686	0.3135853755329816	0.0004794025327753222	-0.5264850667724137	-0.1798867590954524	-0.1945741139207359	0.006432817809013098	0.0311914628635882	-0.2992694280219483	0.0009247572125130963	-0.01026172692125673	0.2338522975391003	-4.968468596612562	-41.81603362116641	-11.12153702675686	1.444769405856217	-3.543310039141655	-625.9497536563192	56.99060216646499	0.2914398355835482	0.6871060310435255	-0.5900763950844621	-1.190711797973094	0.008259150536776316	-0.370419691509929	2.025661335860864	-1.590569501932266	-1.590569501932263	0.5382755183669324	-0.07156175323575258	-0.8150530299703292	-0.106430037879109	1.918110704359801e-08	-1.82068966144408e-07	-3.778056262154327e-06	-1.96423790090309e-06	5.345995578003979e-07	9.375459080235059e-08	-2.643690151949335e-06
1.51	-0.1386469692477994	0.02724252590890931	0.7978550541732152	0.9129418271368109	-0.2443705788706897	-0.06393566913669062	-0.6291995992818744	1.001337403819486	1.001337403819488	0.0244495962500566	0.1744547187598925	0.309147815675115	0.1097552665142398	0.6075768177077154	0.2505899451135409	0.6016099325580744	-2.369666671141947	0.005125920910738318	-0.4031534927580466	0.8189131951458474	-2.188641105143526	-2.188641105143767	0.3183409740775655	0.0005012680241948005	-0.534411632361938	-0.1809809862188634	-0.1861708468917193	0.004919031058864096	0.03097224300505244	-0.2946848933582811	0.002576151953432592	-0.01075551107955604	0.2263042078508699	-5.876834751122579	-40.92661001054518	-11.05138125338954	1.28637772343971	-3.581021693646264	-620.0015501859139	56.75943756969508	0.2524876795435538	0.6709401686439982	-0.6659604230471775	-1.032761865966304	-0.007074967877799638	-0.503867748963903	1.94165629021753	-1.430077861468839	-1.430077861487889	0.4435716263890463	0.03781325201131733	-0.7679968911112438	-0.1065711783970764	2.252269871482329e-08	-1.885589329140298e-07	-3.917201336132788e-06	-2.055240224485712e-06	5.4919502549201e-07	9.608441477727842e-08	-2.653482280223796e-06
1.52	-0.1325598469920427	0.02978165913629599	0.8038364828395509	0.8891971388755711	-0.2443195521706899	-0.06798957944278169	-0.620914081196011	0.9793828099452627	0.9793828099453198	0.02765666110741422	0.1744596149815266	0.3037663146056422	0.1079406809082358	0.6097518354030349	0.2572066393449756	0.5945437699732955	-2.378958301085681	0.005077193850298188	-0.4075994144851279	0.8380855838174047	-2.201977832746156	-2.201977832746524	0.3230713567775462	0.0004732355828348559	-0.541799740658172	-0.1819012984952735	-0.1777675798626892	0.003405244308718584	0.03075302314650163	-0.2901003586946131	0.004227546694352258	-0.0112492952378496	0.2187561181626512	-6.863371036727533	-40.0327988301441	-10.97465502379097	1.120313273939529	-3.629016164669137	-613.9863258600893	56.53209641840348	0.1763119267233544	0.6519235519232416	-0.7483576224884955	-0.8157145605447622	0.001277284206250169	-0.3349167544592569	1.899855483997628	-1.230803946667556	-1.230803946667554	0.5332323494463214	-0.08154133979163529	-0.7073615713121756	-0.07164706847891747	2.601960544077854e-08	-1.956591438982295e-07	-4.050749450682132e-06	-2.148221674418069e-06	5.638012459986827e-07	9.454315967363099e-08	-2.651853332737036e-06
1.53	-0.1264538350487569	0.03238601199326702	0.8097433769637741	0.8653688872425059	-0.2442691525910557	-0.07208742153160064	-0.6124402397015891	0.9573039086399112	0.957303908639935	0.03091070821669576	0.1744642978705169	0.2983136959351167	0.106117831825068	0.6113530610406938	0.2636264594093894	0.5867105523984648	-2.386373199701655	0.004995378180429044	-0.4119375128411595	0.8565548816334712	-2.213490117443136	-2.21349011744336	0.3277470920963639	0.000467388884836899	-0.5486292251045031	-0.1826420655637694	-0.1692771164612362	0.001701921912968464	0.03037600257375215	-0.2859232862832701	0.006082391515078228	-0.01174054156161549	0.2111213511997901	-7.926798669810723	-39.09572670629387	-10.88419705648458	0.9462834043145483	-3.685336849390943	-608.2918504675328	56.3850078158496	0.1373810665225209	0.6315075867927578	-0.819462023528562	-0.6565834443245492	-0.01461707955461673	-0.4784802150727623	1.801291915320361	-1.064600427506452	-1.06460042748489	0.4355068897202602	0.03993299104706048	-0.6563822319871591	-0.07226468006194196	2.968153441238438e-08	-2.034077393604183e-07	-4.17835079583804e-06	-2.243305946097017e-06	5.784188913713573e-07	8.888888304899738e-08	-2.638089492253979e-06
1.54	-0.1203347402122501	0.03505346232150056	0.8155682072725394	0.8414760454368407	-0.2442199123855146	-0.07622768937175749	-0.603785540232025	0.9351192525483334	0.9351192525483232	0.03421166523250097	0.1744689301576939	0.2927956543499884	0.1042881804404098	0.6123684140477742	0.2698261335974768	0.5781310068817113	-2.391876335605662	0.00484531903171134	-0.4160845647530955	0.8742571788459108	-2.223128789991847	-2.223128789991927	0.3324533380800104	0.0004631152208766077	-0.5548843235785769	-0.1832617587933456	-0.1607866530597696	-1.400482771348411e-06	0.02999898200094166	-0.2817462138719281	0.00793723633580687	-0.01223178788536348	0.2034865842369398	-9.06489998496018	-38.15439376561816	-10.78797724092183	0.7656080347616535	-3.746493174401746	-602.5266901372063	56.23548994699503	0.05913740060762475	0.6078943766579837	-0.8976232108730984	-0.4333620181514179	-0.01237141156346101	-0.2967074656400914	1.746455363272192	-0.8560815170139158	-0.8560815170139141	0.5393344824121009	-0.08122673298409826	-0.5924843768606421	-0.04743230069497558	2.226356025071311e-08	-2.060332708908342e-07	-4.030632733779148e-06	-2.26528308037954e-06	5.605627471738736e-07	7.743559557770171e-08	-2.456938541469832e-06
